<svg xmlns="http://www.w3.org/2000/svg" width="306" height="36" viewBox="0 0 306 36">
  <g fill="none">
    <g fill="#007858" transform="translate(60.317)">
      <path d="M10.0038462 4.04081633C12.3576923 4.04081633 14.7850962 4.7755102 16.7711538 6.17142857L15.2264423 8.15510204C13.6081731 7.05306122 12.2105769 6.39183673 10.1509615 6.39183673 6.54663462 6.39183673 3.75144231 8.59591837 3.75144231 11.9020408 3.75144231 15.1346939 6.54663462 17.4122449 10.1509615 17.4122449 12.2841346 17.4122449 13.7552885 16.7510204 15.4471154 15.5755102L16.9918269 17.5591837C14.9322115 19.0285714 12.43125 19.7632653 9.93028846 19.7632653 5.00192308 19.7632653.367788462 16.8979592.367788462 11.9020408.441346154 6.90612245 5.07548077 4.04081633 10.0038462 4.04081633zM20.5225962 4.33469388L28.7610577 4.33469388C32.5860577 4.33469388 35.6754808 5.87755102 35.6754808 9.18367347 35.6754808 11.755102 33.7629808 13.1510204 31.1884615 13.7387755L36.1168269 19.4693878 32.2918269 19.4693878 27.8048077 14.1795918 23.7591346 14.1795918 23.7591346 19.4693878 20.5225962 19.4693878 20.5225962 4.33469388zM28.4668269 11.8285714C30.7471154 11.8285714 32.2182692 10.8734694 32.2182692 9.25714286 32.2182692 7.64081633 30.8206731 6.75918367 28.3932692 6.75918367L23.6855769 6.75918367 23.6855769 11.8285714 28.4668269 11.8285714zM39.5004808 15.0612245L39.5004808 4.26122449 53.2557692 4.26122449 53.2557692 6.68571429 42.7370192 6.68571429 42.7370192 10.3591837 52.3730769 10.3591837 52.3730769 12.7102041 42.7370192 12.7102041 42.7370192 15.0612245C42.7370192 16.3836735 43.3990385 17.044898 44.6495192 17.044898L53.55 17.044898 53.55 19.4693878 43.9139423 19.4693878C41.11875 19.4693878 39.5004808 17.8530612 39.5004808 15.0612245zM49.9456731 0L47.4447115 2.64489796 44.6495192 2.64489796 46.5620192 0 49.9456731 0zM57.6692308 4.33469388L64.5100962 4.33469388C70.3947115 4.33469388 74.2932692 7.34693878 74.2932692 11.9020408 74.2932692 16.4571429 70.3947115 19.4693878 64.5100962 19.4693878L57.6692308 19.4693878 57.6692308 4.33469388zM64.7307692 17.044898C68.4086538 17.044898 70.9096154 14.9877551 70.9096154 11.9020408 70.9096154 8.81632653 68.4086538 6.75918367 64.7307692 6.75918367L60.9057692 6.75918367 60.9057692 17.044898 64.7307692 17.044898z"/>
      <polygon points="77.971 4.335 81.208 4.335 81.208 19.469 77.971 19.469"/>
      <polygon points="84.665 6.759 84.665 4.335 99.597 4.335 99.597 6.759 93.786 6.759 93.786 19.469 90.55 19.469 90.55 6.759"/>
      <path d="M120.046154 15.7959184L111.660577 15.7959184 109.821635 19.4693878 106.511538 19.4693878 114.382212 4.33469388 117.692308 4.33469388 125.562981 19.4693878 121.811538 19.4693878 120.046154 15.7959184zM118.869231 13.444898L115.853365 7.42040816 112.8375 13.444898 118.869231 13.444898zM136.375962 4.04081633C138.729808 4.04081633 141.157212 4.7755102 143.143269 6.17142857L141.598558 8.15510204C139.980288 7.05306122 138.582692 6.39183673 136.523077 6.39183673 132.91875 6.39183673 130.123558 8.59591837 130.123558 11.8285714 130.123558 15.0612245 132.624519 17.3387755 136.375962 17.3387755 138.067788 17.3387755 139.6125 16.8979592 140.642308 16.1632653L140.642308 13.2979592 136.081731 13.2979592 136.081731 10.9469388 143.878846 10.9469388 143.878846 17.3387755C142.039904 18.6612245 139.465385 19.6897959 136.228846 19.6897959 130.491346 19.6897959 126.739904 16.3102041 126.739904 11.8285714 126.813462 6.90612245 131.447596 4.04081633 136.375962 4.04081633zM148.365865 4.33469388L156.604327 4.33469388C160.429327 4.33469388 163.51875 5.87755102 163.51875 9.18367347 163.51875 11.755102 161.60625 13.1510204 159.031731 13.7387755L163.960096 19.4693878 160.135096 19.4693878 155.648077 14.1795918 151.602404 14.1795918 151.602404 19.4693878 148.365865 19.4693878 148.365865 4.33469388zM156.310096 11.8285714C158.590385 11.8285714 160.061538 10.8734694 160.061538 9.25714286 160.061538 7.64081633 158.663942 6.75918367 156.236538 6.75918367L151.528846 6.75918367 151.528846 11.8285714 156.310096 11.8285714z"/>
      <polygon points="167.859 4.335 171.095 4.335 171.095 19.469 167.859 19.469"/>
      <path d="M184.55625 4.04081633C186.910096 4.04081633 189.3375 4.7755102 191.323558 6.17142857L189.778846 8.15510204C188.160577 7.05306122 186.762981 6.39183673 184.703365 6.39183673 181.099038 6.39183673 178.303846 8.59591837 178.303846 11.9020408 178.303846 15.1346939 181.099038 17.4122449 184.703365 17.4122449 186.836538 17.4122449 188.307692 16.7510204 189.999519 15.5755102L191.544231 17.5591837C189.484615 19.0285714 186.983654 19.7632653 184.482692 19.7632653 179.554327 19.7632653 174.920192 16.8979592 174.920192 11.9020408 175.067308 6.90612245 179.701442 4.04081633 184.55625 4.04081633zM193.088942 11.9020408C193.088942 7.64081633 197.061058 4.04081633 202.651442 4.04081633 208.241827 4.04081633 212.213942 7.56734694 212.213942 11.9020408 212.213942 16.1632653 208.241827 19.7632653 202.651442 19.7632653 197.061058 19.6897959 193.088942 16.1632653 193.088942 11.9020408zM196.472596 11.9020408C196.472596 14.9877551 198.973558 17.4122449 202.725 17.4122449 206.402885 17.4122449 208.977404 14.9877551 208.977404 11.9020408 208.977404 8.81632653 206.476442 6.39183673 202.725 6.39183673 198.973558 6.39183673 196.472596 8.81632653 196.472596 11.9020408z"/>
      <polygon points="215.524 4.335 218.761 4.335 218.761 17.045 228.397 17.045 228.397 19.469 215.524 19.469"/>
      <path d="M230.676923,15.0612245 L230.676923,4.26122449 L244.432212,4.26122449 L244.432212,6.68571429 L233.913462,6.68571429 L233.913462,10.3591837 L243.549519,10.3591837 L243.549519,12.7102041 L233.913462,12.7102041 L233.913462,15.0612245 C233.913462,16.3836735 234.575481,17.044898 235.825962,17.044898 L244.726442,17.044898 L244.726442,19.4693878 L235.090385,19.4693878 C232.295192,19.4693878 230.676923,17.8530612 230.676923,15.0612245 Z"/>
    </g>
    <g fill="#72787A" transform="translate(61.053 26.449)">
      <path d="M5.44326923.293877551C6.76730769.293877551 8.09134615.66122449 9.19471154 1.46938776L8.38557692 2.57142857C7.50288462 1.91020408 6.76730769 1.61632653 5.59038462 1.61632653 3.60432692 1.61632653 2.05961538 2.86530612 2.05961538 4.70204082 2.05961538 6.53877551 3.60432692 7.7877551 5.59038462 7.7877551 6.76730769 7.7877551 7.57644231 7.42040816 8.53269231 6.75918367L9.34182692 7.86122449C8.23846154 8.66938776 6.84086538 9.11020408 5.44326923 9.11020408 2.72163462 9.11020408.147115385 7.49387755.147115385 4.70204082.220673077 1.91020408 2.79519231.293877551 5.44326923.293877551zM9.93028846 4.70204082C9.93028846 2.35102041 12.1370192.367346939 15.2264423.367346939 18.3158654.367346939 20.5225962 2.35102041 20.5225962 4.70204082 20.5225962 7.05306122 18.3158654 9.03673469 15.2264423 9.03673469 12.1370192 9.03673469 9.93028846 7.05306122 9.93028846 4.70204082zM11.8427885 4.70204082C11.8427885 6.39183673 13.2403846 7.7877551 15.3 7.7877551 17.3596154 7.7877551 18.7572115 6.46530612 18.7572115 4.70204082 18.7572115 3.0122449 17.3596154 1.61632653 15.3 1.61632653 13.2403846 1.61632653 11.8427885 3.0122449 11.8427885 4.70204082zM21.99375.440816327L26.5543269.440816327C28.6875.440816327 30.3793269 1.32244898 30.3793269 3.15918367 30.3793269 4.62857143 29.3495192 5.36326531 27.8783654 5.65714286L30.6 8.81632653 28.5403846 8.81632653 26.0394231 5.87755102 23.8326923 5.87755102 23.8326923 8.81632653 22.0673077 8.81632653 22.0673077.440816327 21.99375.440816327zM26.4072115 4.62857143C27.6576923 4.62857143 28.4668269 4.11428571 28.4668269 3.15918367 28.4668269 2.27755102 27.6576923 1.76326531 26.4072115 1.76326531L23.8326923 1.76326531 23.8326923 4.62857143 26.4072115 4.62857143zM32.3653846.440816327L36.9259615.440816327C39.0591346.440816327 40.8245192 1.39591837 40.8245192 3.37959184 40.8245192 5.36326531 39.0591346 6.39183673 36.9259615 6.39183673L34.1307692 6.39183673 34.1307692 8.96326531 32.3653846 8.96326531 32.3653846.440816327zM36.8524038 4.99591837C38.1028846 4.99591837 38.9855769 4.40816327 38.9855769 3.37959184 38.9855769 2.35102041 38.1764423 1.83673469 36.8524038 1.83673469L34.1307692 1.83673469 34.1307692 4.99591837 36.8524038 4.99591837zM41.4129808 4.70204082C41.4129808 2.35102041 43.6197115.367346939 46.7091346.367346939 49.7985577.367346939 52.0052885 2.35102041 52.0052885 4.70204082 52.0052885 7.05306122 49.7985577 9.03673469 46.7091346 9.03673469 43.6197115 9.03673469 41.4129808 7.05306122 41.4129808 4.70204082zM43.3254808 4.70204082C43.3254808 6.39183673 44.7230769 7.7877551 46.7826923 7.7877551 48.8423077 7.7877551 50.2399038 6.46530612 50.2399038 4.70204082 50.2399038 3.0122449 48.8423077 1.61632653 46.7826923 1.61632653 44.7230769 1.61632653 43.3254808 3.0122449 43.3254808 4.70204082zM53.6235577.440816327L58.1841346.440816327C60.3173077.440816327 62.0091346 1.32244898 62.0091346 3.15918367 62.0091346 4.62857143 60.9793269 5.36326531 59.5081731 5.65714286L62.2298077 8.81632653 60.1701923 8.81632653 57.6692308 5.87755102 55.4625 5.87755102 55.4625 8.81632653 53.6971154 8.81632653 53.6971154.440816327 53.6235577.440816327zM58.0370192 4.62857143C59.2875 4.62857143 60.0966346 4.11428571 60.0966346 3.15918367 60.0966346 2.27755102 59.2875 1.76326531 58.0370192 1.76326531L55.4625 1.76326531 55.4625 4.62857143 58.0370192 4.62857143zM70.1740385 6.90612245L65.5399038 6.90612245 64.5100962 8.96326531 62.6711538 8.96326531 67.0110577.514285714 68.85.514285714 73.1899038 8.96326531 71.1302885 8.96326531 70.1740385 6.90612245zM69.5120192 5.58367347L67.89375 2.20408163 66.2754808 5.58367347 69.5120192 5.58367347z"/>
      <polygon points="72.528 1.837 72.528 .514 80.766 .514 80.766 1.837 77.53 1.837 77.53 8.89 75.764 8.89 75.764 1.837"/>
      <path d="M82.1639423 6.46530612L82.1639423.440816327 89.7403846.440816327 89.7403846 1.76326531 83.9293269 1.76326531 83.9293269 3.82040816 89.2254808 3.82040816 89.2254808 5.14285714 83.9293269 5.14285714 83.9293269 6.46530612C83.9293269 7.2 84.2971154 7.56734694 84.9591346 7.56734694L89.8875 7.56734694 89.8875 8.88979592 84.5913462 8.88979592C83.0466346 8.88979592 82.1639423 8.00816327 82.1639423 6.46530612zM99.45 7.93469388C98.7144231 8.59591837 97.9052885 9.03673469 96.8754808 9.03673469 95.3307692 9.03673469 94.1538462 8.08163265 94.1538462 6.6122449 94.1538462 5.51020408 94.8158654 4.7755102 95.9192308 4.26122449 95.4778846 3.67346939 95.2572115 3.08571429 95.2572115 2.49795918 95.2572115 1.39591837 96.1399038.367346939 97.6846154.367346939 99.0086538.367346939 99.8913462 1.24897959 99.8913462 2.4244898 99.8913462 3.52653061 99.1557692 4.1877551 98.0524038 4.62857143L99.45 6.09795918C99.7442308 5.58367347 100.038462 5.06938776 100.332692 4.48163265L101.436058 5.06938776C101.068269 5.73061224 100.700481 6.39183673 100.332692 6.97959184L101.656731 8.30204082 100.553365 9.11020408 99.45 7.93469388zM98.6408654 7.05306122L96.8019231 5.14285714C95.9927885 5.51020408 95.6985577 6.0244898 95.6985577 6.53877551 95.6985577 7.27346939 96.2870192 7.7877551 97.0961538 7.7877551 97.6110577 7.7877551 98.1259615 7.49387755 98.6408654 7.05306122zM98.5673077 2.49795918C98.5673077 1.91020408 98.1995192 1.54285714 97.6110577 1.54285714 97.0225962 1.54285714 96.6548077 1.98367347 96.6548077 2.57142857 96.6548077 3.0122449 96.8019231 3.30612245 97.3168269 3.82040816 98.1259615 3.45306122 98.5673077 3.08571429 98.5673077 2.49795918z"/>
      <polygon points="106.364 .441 108.13 .441 108.13 8.89 106.364 8.89"/>
      <polygon points="112.47 2.865 112.47 8.89 110.704 8.89 110.704 .441 112.47 .441 117.619 6.465 117.619 .441 119.384 .441 119.384 8.89 117.619 8.89"/>
      <polygon points="130.786 .441 126.666 8.89 124.827 8.89 120.635 .441 122.694 .441 125.857 7.127 129.02 .441"/>
      <path d="M131.741827 6.46530612L131.741827.440816327 139.318269.440816327 139.318269 1.76326531 133.507212 1.76326531 133.507212 3.82040816 138.803365 3.82040816 138.803365 5.14285714 133.507212 5.14285714 133.507212 6.46530612C133.507212 7.2 133.875 7.56734694 134.537019 7.56734694L139.465385 7.56734694 139.465385 8.88979592 134.169231 8.88979592C132.624519 8.88979592 131.741827 8.00816327 131.741827 6.46530612zM140.789423 7.71428571L141.598558 6.46530612C142.701923 7.27346939 144.173077 7.64081633 145.423558 7.64081633 146.747596 7.64081633 147.850962 7.27346939 147.850962 6.6122449 147.850962 5.95102041 146.674038 5.73061224 145.276442 5.43673469 143.363942 4.99591837 141.083654 4.55510204 141.083654 2.86530612 141.083654 1.32244898 142.996154.293877551 145.202885.293877551 146.747596.293877551 148.292308.734693878 149.469231 1.54285714L148.660096 2.79183673C147.703846 2.05714286 146.453365 1.68979592 145.276442 1.68979592 144.099519 1.68979592 142.922596 2.05714286 142.922596 2.64489796 142.922596 3.23265306 144.025962 3.45306122 145.35 3.67346939 147.2625 4.04081633 149.689904 4.55510204 149.689904 6.39183673 149.689904 8.08163265 147.703846 9.03673469 145.497115 9.03673469 143.805288 9.03673469 142.039904 8.52244898 140.789423 7.71428571z"/>
      <polygon points="150.499 1.837 150.499 .514 158.738 .514 158.738 1.837 155.501 1.837 155.501 8.89 153.736 8.89 153.736 1.837"/>
      <polygon points="168.079 .441 169.992 .441 169.992 8.89 168.226 8.89 168.226 2.571 164.916 7.273 161.68 2.718 161.68 8.89 160.135 8.89 160.135 .441 162.048 .441 165.063 4.702"/>
      <path d="M172.051442,6.46530612 L172.051442,0.440816327 L179.627885,0.440816327 L179.627885,1.76326531 L173.816827,1.76326531 L173.816827,3.82040816 L179.112981,3.82040816 L179.112981,5.14285714 L173.816827,5.14285714 L173.816827,6.46530612 C173.816827,7.2 174.184615,7.56734694 174.846635,7.56734694 L179.775,7.56734694 L179.775,8.88979592 L174.478846,8.88979592 C172.934135,8.88979592 172.051442,8.00816327 172.051442,6.46530612 Z"/>
      <polygon points="183.6 2.865 183.6 8.89 181.835 8.89 181.835 .441 183.6 .441 188.749 6.465 188.749 .441 190.514 .441 190.514 8.89 188.749 8.89"/>
      <polygon points="191.838 1.837 191.838 .514 200.077 .514 200.077 1.837 196.84 1.837 196.84 8.89 195.075 8.89 195.075 1.837"/>
      <path d="M213.537981 6.53877551C213.537981 8.08163265 211.993269 8.88979592 210.080769 8.88979592L204.858173 8.88979592 204.858173.440816327 209.712981.440816327C211.625481.440816327 213.170192 1.24897959 213.170192 2.71836735 213.170192 3.6 212.655288 4.1877551 211.846154 4.55510204 212.875962 4.84897959 213.537981 5.51020408 213.537981 6.53877551zM206.623558 1.83673469L206.623558 4.04081633 209.565865 4.04081633C210.595673 4.04081633 211.257692 3.67346939 211.257692 2.93877551 211.257692 2.27755102 210.595673 1.83673469 209.492308 1.83673469L206.623558 1.83673469zM211.625481 6.39183673C211.625481 5.65714286 210.963462 5.28979592 209.933654 5.28979592L206.623558 5.28979592 206.623558 7.56734694 209.933654 7.56734694C210.963462 7.56734694 211.625481 7.12653061 211.625481 6.39183673zM221.187981 6.90612245L216.553846 6.90612245 215.524038 8.96326531 213.685096 8.96326531 218.025.514285714 219.863942.514285714 224.203846 8.96326531 222.144231 8.96326531 221.187981 6.90612245zM220.525962 5.58367347L218.907692 2.20408163 217.289423 5.58367347 220.525962 5.58367347z"/>
      <polygon points="226.852 2.865 226.852 8.89 225.087 8.89 225.087 .441 226.852 .441 232.001 6.465 232.001 .441 233.766 .441 233.766 8.89 232.001 8.89"/>
      <polygon points="239.283 4.996 237.812 6.245 237.812 8.89 236.047 8.89 236.047 .441 237.812 .441 237.812 4.482 242.299 .441 244.359 .441 240.46 3.82 244.8 8.816 242.593 8.816"/>
    </g>
    <g transform="translate(0 1.47)">
      <g fill="#72787A" transform="translate(.736 18.367)">
        <path d="M33.9100962,3.30612245 L39.5004808,0.367346939 L43.6197115,8.96326531 L37.4408654,8.96326531 C37.4408654,8.96326531 36.2639423,8.96326531 35.7490385,7.93469388 C35.3076923,6.68571429 33.9100962,3.30612245 33.9100962,3.30612245 Z"/>
        <rect width="44.723" height="3.967" x=".221" y="11.682"/>
      </g>
      <path fill="#007858" d="M48.9158654,4.7755102 C48.9158654,4.7755102 41.8543269,8.81632653 40.2360577,9.40408163 C38.6913462,9.99183673 38.1764423,9.18367347 37.9557692,8.96326531 C37.5144231,8.3755102 36.8524038,6.31836735 36.7788462,6.0244898 C36.8524038,6.0244898 37.2201923,6.09795918 38.1028846,5.87755102 C39.20625,5.58367347 48.8423077,0.220408163 48.9158654,0.220408163 L48.9158654,4.7755102 Z"/>
      <path fill="#72787A" d="M37.6615385,13.077551 L33.0274038,2.86530612 L26.3336538,2.86530612 L16.9182692,20.4244898 C16.9182692,20.4244898 21.5524038,20.277551 24.4947115,18.0734694 C25.2302885,17.6326531 27.3634615,12.0489796 29.2759615,8.3755102 L32.2918269,15.9428571 C27.73125,18.2938776 23.3913462,20.3510204 21.0375,21.0122449 C14.8586538,22.7755102 7.35576923,23.877551 4.70769231,21.4530612 C2.20673077,19.1755102 8.01778846,9.77142857 19.0514423,7.71428571 C20.8168269,7.34693878 21.9201923,7.42040816 21.9201923,7.42040816 C21.9201923,7.42040816 21.1846154,4.1877551 20.5961538,3.52653061 C19.7870192,2.49795918 18.9778846,2.27755102 17.7274038,2.49795918 C15.3,2.64489796 5.14903846,5.36326531 1.10336538,13.8122449 C-1.10336538,18.6612245 1.83894231,23.5102041 3.75144231,24.9061224 C4.63413462,25.5673469 10.4451923,30.7102041 23.8326923,25.4938776 C36.9995192,20.3510204 48.8423077,12.3428571 48.8423077,12.3428571 L48.8423077,6.97959184 C48.9158654,6.83265306 43.7668269,9.84489796 37.6615385,13.077551 Z"/>
    </g>
  </g>
</svg>
